<mxfile host="Electron" agent="Mozilla/5.0 (Macintosh; Intel Mac OS X 10_15_7) AppleWebKit/537.36 (KHTML, like Gecko) draw.io/28.2.8 Chrome/140.0.7339.240 Electron/38.4.0 Safari/537.36" version="28.2.8">
  <diagram id="L-C3-Pokedex-Basis" name="Pokedex-Basis ERM (Chen)">
    <mxGraphModel dx="970" dy="1881" grid="1" gridSize="10" guides="1" tooltips="1" connect="1" arrows="1" fold="1" page="1" pageScale="1" pageWidth="827" pageHeight="1169" math="0" shadow="0">
      <root>
        <mxCell id="0" />
        <mxCell id="1" parent="0" />
        <mxCell id="E1_Spezies" value="Spezies" style="shape=rectangle;perimeter=rectanglePerimeter;whiteSpace=wrap;html=1;align=center;" parent="1" vertex="1">
          <mxGeometry x="364" y="20" width="100" height="40" as="geometry" />
        </mxCell>
        <mxCell id="A1_Spezies_ID" value="Pokedex_Nr" style="shape=ellipse;perimeter=ellipsePerimeter;whiteSpace=wrap;html=1;align=center;fontStyle=4;" parent="1" vertex="1">
          <mxGeometry x="240" y="20" width="80" height="40" as="geometry" />
        </mxCell>
        <mxCell id="L1_Spezies" value="" style="endArrow=none;html=1;rounded=0;" parent="1" source="E1_Spezies" target="A1_Spezies_ID" edge="1">
          <mxGeometry relative="1" as="geometry" />
        </mxCell>
        <mxCell id="E2_Typ" value="Typ" style="shape=rectangle;perimeter=rectanglePerimeter;whiteSpace=wrap;html=1;align=center;" parent="1" vertex="1">
          <mxGeometry x="364" y="260" width="100" height="40" as="geometry" />
        </mxCell>
        <mxCell id="A2_Typ_ID" value="Typ_ID" style="shape=ellipse;perimeter=ellipsePerimeter;whiteSpace=wrap;html=1;align=center;fontStyle=4;" parent="1" vertex="1">
          <mxGeometry x="240" y="260" width="80" height="40" as="geometry" />
        </mxCell>
        <mxCell id="L2_Typ" value="" style="endArrow=none;html=1;rounded=0;" parent="1" source="E2_Typ" target="A2_Typ_ID" edge="1">
          <mxGeometry relative="1" as="geometry" />
        </mxCell>
        <mxCell id="E3_Attacke" value="Attacke" style="shape=rectangle;perimeter=rectanglePerimeter;whiteSpace=wrap;html=1;align=center;" parent="1" vertex="1">
          <mxGeometry x="364" y="500" width="100" height="40" as="geometry" />
        </mxCell>
        <mxCell id="A3_Attacke_ID" value="Attacke_ID" style="shape=ellipse;perimeter=ellipsePerimeter;whiteSpace=wrap;html=1;align=center;fontStyle=4;" parent="1" vertex="1">
          <mxGeometry x="240" y="500" width="80" height="40" as="geometry" />
        </mxCell>
        <mxCell id="L3_Attacke" value="" style="endArrow=none;html=1;rounded=0;exitX=0;exitY=0.5;exitDx=0;exitDy=0;entryX=1;entryY=0.5;entryDx=0;entryDy=0;" parent="1" source="E3_Attacke" target="A3_Attacke_ID" edge="1">
          <mxGeometry relative="1" as="geometry" />
        </mxCell>
        <mxCell id="R1_hat_Typ" value="hat_Typ" style="shape=rhombus;perimeter=rhombusPerimeter;whiteSpace=wrap;html=1;align=center;" parent="1" vertex="1">
          <mxGeometry x="374" y="130" width="80" height="60" as="geometry" />
        </mxCell>
        <mxCell id="L_R1_Spezies" value="M" style="edgeLabel;html=1;align=center;verticalAlign=middle;resizable=0;points=[];" parent="1" vertex="1" connectable="0">
          <mxGeometry x="404" y="73" as="geometry" />
        </mxCell>
        <mxCell id="L_R1_Typ" value="N" style="edgeLabel;html=1;align=center;verticalAlign=middle;resizable=0;points=[];" parent="1" vertex="1" connectable="0">
          <mxGeometry x="404" y="246" as="geometry" />
        </mxCell>
        <mxCell id="Edge_R1_Spezies" value="" style="endArrow=none;html=1;rounded=0;entryX=0.5;entryY=0;exitX=0.5;exitY=1;" parent="1" source="E1_Spezies" target="R1_hat_Typ" edge="1">
          <mxGeometry relative="1" as="geometry" />
        </mxCell>
        <mxCell id="Edge_R1_Typ" value="" style="endArrow=none;html=1;rounded=0;entryX=0.5;entryY=0;exitX=0.5;exitY=1;" parent="1" source="R1_hat_Typ" target="E2_Typ" edge="1">
          <mxGeometry relative="1" as="geometry" />
        </mxCell>
        <mxCell id="R2_lernt" value="lernt" style="shape=rhombus;perimeter=rhombusPerimeter;whiteSpace=wrap;html=1;align=center;" parent="1" vertex="1">
          <mxGeometry x="570" y="250" width="80" height="60" as="geometry" />
        </mxCell>
        <mxCell id="L_R2_Spezies" value="M" style="edgeLabel;html=1;align=center;verticalAlign=middle;resizable=0;points=[];" parent="1" vertex="1" connectable="0">
          <mxGeometry x="480" y="50" as="geometry" />
        </mxCell>
        <mxCell id="L_R2_Attacke" value="N" style="edgeLabel;html=1;align=center;verticalAlign=middle;resizable=0;points=[];" parent="1" vertex="1" connectable="0">
          <mxGeometry x="500" y="520" as="geometry">
            <mxPoint x="-21" y="-7" as="offset" />
          </mxGeometry>
        </mxCell>
        <mxCell id="Edge_R2_Spezies" value="" style="endArrow=none;html=1;rounded=0;exitX=1;exitY=0.5;entryX=0.5;entryY=0;entryDx=0;entryDy=0;" parent="1" source="E1_Spezies" edge="1" target="R2_lernt">
          <mxGeometry relative="1" as="geometry">
            <mxPoint x="474" y="50" as="sourcePoint" />
            <mxPoint x="640" y="250" as="targetPoint" />
            <Array as="points">
              <mxPoint x="610" y="40" />
            </Array>
          </mxGeometry>
        </mxCell>
        <mxCell id="Edge_R2_Attacke" value="" style="endArrow=none;html=1;rounded=0;exitX=1;exitY=0.5;entryX=0.5;entryY=1;entryDx=0;entryDy=0;" parent="1" source="E3_Attacke" edge="1" target="R2_lernt">
          <mxGeometry relative="1" as="geometry">
            <mxPoint x="474" y="530" as="sourcePoint" />
            <mxPoint x="640" y="310" as="targetPoint" />
            <Array as="points">
              <mxPoint x="610" y="520" />
            </Array>
          </mxGeometry>
        </mxCell>
        <mxCell id="R3_ist_vom_Typ" value="ist_vom_Typ" style="shape=rhombus;perimeter=rhombusPerimeter;whiteSpace=wrap;html=1;align=center;" parent="1" vertex="1">
          <mxGeometry x="354" y="370" width="120" height="70" as="geometry" />
        </mxCell>
        <mxCell id="L_R3_Attacke" value="N" style="edgeLabel;html=1;align=center;verticalAlign=middle;resizable=0;points=[];" parent="1" vertex="1" connectable="0">
          <mxGeometry x="404" y="488" as="geometry" />
        </mxCell>
        <mxCell id="L_R3_Typ" value="1" style="edgeLabel;html=1;align=center;verticalAlign=middle;resizable=0;points=[];" parent="1" vertex="1" connectable="0">
          <mxGeometry x="404" y="312" as="geometry" />
        </mxCell>
        <mxCell id="Edge_R3_Attacke" value="" style="endArrow=none;html=1;rounded=0;exitX=0.5;exitY=0;entryX=0.5;entryY=1;entryDx=0;entryDy=0;" parent="1" source="E3_Attacke" target="R3_ist_vom_Typ" edge="1">
          <mxGeometry relative="1" as="geometry" />
        </mxCell>
        <mxCell id="Edge_R3_Typ" value="" style="endArrow=none;html=1;rounded=0;exitX=0.5;exitY=1;entryX=0.5;entryY=0;entryDx=0;entryDy=0;" parent="1" source="E2_Typ" target="R3_ist_vom_Typ" edge="1">
          <mxGeometry relative="1" as="geometry" />
        </mxCell>
        <mxCell id="R4_entwickelt_aus" value="entwickelt_aus" style="shape=rhombus;perimeter=rhombusPerimeter;whiteSpace=wrap;html=1;align=center;" parent="1" vertex="1">
          <mxGeometry x="354" y="-150" width="120" height="70" as="geometry" />
        </mxCell>
        <mxCell id="Edge_R4_Von" value="1" style="endArrow=none;html=1;rounded=0;exitX=0;exitY=1;exitDx=0;exitDy=0;entryX=0.197;entryY=0.009;entryDx=0;entryDy=0;entryPerimeter=0;" parent="1" source="R4_entwickelt_aus" edge="1" target="E1_Spezies">
          <mxGeometry x="0.8239" y="6" relative="1" as="geometry">
            <mxPoint x="400" y="-40" as="targetPoint" />
            <Array as="points" />
            <mxPoint as="offset" />
          </mxGeometry>
        </mxCell>
        <mxCell id="Edge_R4_Zu" value="N" style="endArrow=none;html=1;rounded=0;exitX=1;exitY=1;exitDx=0;exitDy=0;entryX=0.809;entryY=-0.03;entryDx=0;entryDy=0;entryPerimeter=0;" parent="1" source="R4_entwickelt_aus" target="E1_Spezies" edge="1">
          <mxGeometry x="0.8494" y="5" relative="1" as="geometry">
            <mxPoint x="120" y="90" as="sourcePoint" />
            <mxPoint as="offset" />
          </mxGeometry>
        </mxCell>
      </root>
    </mxGraphModel>
  </diagram>
</mxfile>
